<?xml version="1.0" standalone="no"?>
<!DOCTYPE svg PUBLIC "-//W3C//DTD SVG 20010904//EN"
 "http://www.w3.org/TR/2001/REC-SVG-20010904/DTD/svg10.dtd">
<svg version="1.0" xmlns="http://www.w3.org/2000/svg"
 width="110.000000pt" height="110.000000pt" viewBox="0 0 110.000000 110.000000"
 preserveAspectRatio="xMidYMid meet">
<metadata>
Created by potrace 1.14, written by Peter Selinger 2001-2017
</metadata>
<g transform="translate(0.000000,110.000000) scale(0.100000,-0.100000)"
fill="#000000" stroke="none">
<path d="M50 1091 c0 -6 4 -13 10 -16 6 -3 7 1 4 9 -7 18 -14 21 -14 7z"/>
<path d="M576 1093 c5 -5 12 -12 16 -18 4 -6 8 -2 8 8 0 9 -7 17 -17 17 -9 0
-12 -3 -7 -7z"/>
<path d="M622 1080 c0 -14 2 -19 5 -12 2 6 2 18 0 25 -3 6 -5 1 -5 -13z"/>
<path d="M892 1080 c0 -14 2 -19 5 -12 2 6 2 18 0 25 -3 6 -5 1 -5 -13z"/>
<path d="M922 1085 c0 -11 4 -33 8 -50 7 -27 8 -27 8 -5 0 14 -4 36 -8 50 -6
20 -8 21 -8 5z"/>
<path d="M973 1086 c4 -9 3 -14 -2 -11 -14 8 -24 -32 -17 -62 5 -17 3 -23 -5
-18 -8 5 -9 -6 -4 -41 5 -27 9 -58 10 -69 1 -11 9 -34 18 -52 21 -39 22 -73 2
-99 -11 -15 -15 -16 -16 -4 0 8 -4 4 -8 -8 -5 -20 -9 -15 -24 35 -10 32 -25
71 -33 86 -8 16 -14 41 -15 55 0 23 -1 24 -8 8 -7 -18 -9 -16 -19 13 -6 18
-16 30 -22 26 -5 -3 -10 2 -10 11 0 10 -3 14 -6 11 -4 -4 -2 -19 4 -34 5 -15
13 -37 17 -48 9 -24 19 -131 20 -202 0 -36 4 -53 13 -53 6 0 12 -4 12 -10 0
-5 -7 -10 -16 -10 -14 0 -16 -8 -10 -57 13 -108 13 -106 -19 -127 -24 -17 -30
-28 -30 -56 0 -32 -3 -35 -40 -42 -68 -14 -117 -29 -112 -34 2 -2 33 2 68 10
35 9 66 13 69 10 9 -10 -31 -32 -71 -39 -42 -7 -44 -25 -3 -25 28 0 28 -1 12
-35 -8 -19 -19 -25 -41 -25 -39 0 -174 67 -192 94 -14 22 -35 190 -35 278 l0
50 40 -36 c41 -36 60 -45 60 -25 0 5 4 8 9 5 5 -3 16 5 25 19 19 29 57 33 80
9 11 -11 25 -14 46 -9 32 7 35 12 20 35 -7 12 -3 16 18 21 l27 6 -27 13 c-34
16 -72 90 -63 122 4 18 2 17 -10 -5 -16 -27 -16 -30 4 -51 23 -25 28 -56 9
-56 -7 0 -44 7 -83 15 -38 8 -81 15 -94 15 -18 0 -22 4 -16 18 4 9 10 26 13
37 3 11 8 22 11 25 26 22 74 177 58 187 -6 3 -7 1 -3 -5 4 -7 3 -12 -3 -12 -5
0 -16 -19 -24 -42 -13 -35 -16 -38 -17 -18 -1 17 -6 10 -15 -25 -8 -27 -11
-58 -8 -69 3 -12 1 -16 -6 -11 -8 4 -16 -5 -24 -24 -6 -17 -15 -31 -19 -31 -4
0 -8 -7 -8 -16 0 -8 -4 -13 -9 -10 -5 3 -11 -8 -15 -25 -4 -20 -10 -28 -17
-23 -9 5 -11 -16 -7 -82 l5 -89 -15 60 c-11 44 -17 54 -22 40 -5 -15 -9 -7
-15 30 l-8 50 -9 -43 c-8 -36 -6 -50 12 -88 12 -24 24 -70 27 -102 l4 -57 -30
35 c-17 19 -41 54 -53 77 -21 39 -27 43 -60 43 -45 0 -121 48 -149 94 -23 38
-25 94 -4 124 14 19 14 24 0 51 -20 39 -19 47 3 30 9 -7 5 0 -9 16 -15 17 -32
41 -38 55 -11 24 -11 24 3 6 14 -18 16 -18 16 -3 0 10 -6 20 -14 23 -8 3 -22
17 -31 31 -10 14 -12 22 -5 18 8 -5 7 0 -2 14 -11 18 -13 -28 -16 -295 -1
-207 1 -321 8 -329 6 -7 8 -21 4 -31 -5 -15 -4 -16 5 -4 15 22 23 6 11 -24 -6
-18 -6 -25 0 -21 6 3 10 13 10 21 0 8 5 12 10 9 6 -4 10 -12 9 -18 -2 -11 6
-34 28 -87 3 -8 5 -19 4 -23 -1 -5 3 -6 9 -2 5 3 10 1 10 -5 0 -7 23 -35 50
-62 28 -27 50 -55 50 -61 0 -9 2 -9 8 0 5 8 16 3 37 -15 17 -14 22 -23 13 -19
-10 3 -18 2 -18 -3 0 -6 18 -10 40 -10 22 0 40 3 40 8 -1 4 -24 18 -52 31 -90
42 -171 131 -198 216 -7 22 -25 61 -41 87 -16 26 -26 54 -23 63 3 8 9 13 13
11 4 -3 8 41 9 96 1 56 4 103 7 106 3 3 5 -13 5 -36 0 -35 4 -43 31 -59 17
-10 50 -48 75 -86 48 -72 97 -114 169 -144 41 -16 45 -21 45 -53 0 -19 7 -48
15 -64 9 -18 15 -56 15 -102 l0 -74 344 0 c337 0 345 0 351 20 4 11 3 35 0 53
-9 42 -48 127 -58 127 -5 0 -6 4 -2 9 3 5 1 12 -5 16 -5 3 -10 18 -10 33 l0
27 20 -25 c11 -14 20 -29 21 -35 0 -5 9 -28 19 -50 18 -40 19 -37 19 380 l1
420 -42 -75 c-23 -41 -43 -69 -46 -62 -2 7 6 27 17 45 39 61 54 102 59 162 5
72 -3 71 -11 -1 -5 -51 -27 -107 -47 -119 -14 -9 -13 5 10 70 11 32 20 70 19
84 0 18 -5 10 -14 -24 -8 -27 -14 -54 -15 -58 0 -5 -5 -5 -11 -1 -7 4 -9 25
-5 58 5 49 5 50 -9 26 -12 -19 -15 -21 -13 -6 2 10 -3 21 -11 24 -10 3 -12 0
-8 -12z m23 -72 c-4 -9 -9 -15 -11 -12 -3 3 -3 13 1 22 4 9 9 15 11 12 3 -3 3
-13 -1 -22z m-399 -374 l26 -20 -70 0 c-38 0 -72 3 -75 6 -3 3 -3 14 0 26 4
18 10 20 49 14 25 -3 56 -15 70 -26z m339 -13 c-3 -14 -13 -28 -22 -31 -12 -5
-15 -2 -9 11 3 10 7 23 8 28 2 12 20 26 25 20 3 -2 2 -15 -2 -28z m-399 -33
c-3 -3 -12 -4 -19 -1 -8 3 -5 6 6 6 11 1 17 -2 13 -5z m394 -215 c23 -16 29
-28 29 -59 0 -48 -14 -58 -48 -33 -28 21 -45 67 -36 96 7 22 19 22 55 -4z
m-20 -286 c-12 -20 -14 -14 -5 12 4 9 9 14 11 11 3 -2 0 -13 -6 -23z"/>
<path d="M320 1055 c0 -5 9 -23 20 -40 26 -39 26 -25 0 17 -11 18 -20 29 -20
23z"/>
<path d="M646 1033 c4 -16 13 -41 21 -58 7 -16 11 -22 8 -12 -3 10 -8 36 -11
58 -4 21 -11 39 -15 39 -5 0 -6 -12 -3 -27z"/>
<path d="M622 1030 c0 -14 2 -19 5 -12 2 6 2 18 0 25 -3 6 -5 1 -5 -13z"/>
<path d="M532 1015 c-17 -37 -14 -45 4 -12 9 16 14 31 11 33 -2 2 -9 -7 -15
-21z"/>
<path d="M790 995 c-23 -37 -38 -49 -20 -16 10 20 14 48 5 40 -2 -3 -11 -21
-20 -41 l-15 -37 29 10 c19 7 31 20 39 44 13 44 9 44 -18 0z"/>
<path d="M127 988 c11 -14 34 -39 51 -53 18 -15 29 -32 25 -38 -3 -7 -3 -9 2
-5 4 4 14 3 20 -2 9 -7 12 -5 11 10 0 11 -5 21 -11 21 -22 2 -45 21 -39 32 4
7 3 9 -1 4 -5 -4 -24 7 -44 25 -29 28 -31 29 -14 6z"/>
<path d="M713 975 c0 -22 2 -30 4 -17 2 12 2 30 0 40 -3 9 -5 -1 -4 -23z"/>
<path d="M264 962 c32 -35 44 -72 23 -72 -7 0 -18 5 -25 12 -8 8 -12 9 -12 1
0 -11 58 -36 70 -31 3 2 16 -5 30 -15 30 -21 40 -22 40 -2 0 8 -8 15 -17 15
-17 1 -17 1 0 14 9 7 17 15 17 18 0 2 -24 15 -52 28 -29 12 -64 32 -78 44 -20
16 -19 14 4 -12z m85 -77 c-24 -14 -61 -9 -39 5 9 6 9 9 1 14 -25 16 1 23 30
9 l32 -16 -24 -12z"/>
<path d="M317 909 c7 -9 10 -19 6 -23 -4 -4 1 -4 10 0 10 3 17 7 15 8 -2 1
-12 8 -23 16 -18 14 -19 13 -8 -1z"/>
<path d="M600 964 c7 -8 20 -14 29 -13 10 0 12 2 3 6 -6 2 -10 8 -8 12 3 4 -4
8 -15 8 -17 2 -18 -1 -9 -13z"/>
<path d="M930 901 c0 -5 5 -13 10 -16 6 -3 10 -2 10 4 0 5 -4 13 -10 16 -5 3
-10 2 -10 -4z"/>
<path d="M127 737 c-22 -16 -33 -79 -18 -103 10 -16 11 -13 9 21 -3 38 -2 40
27 40 22 0 29 -4 26 -15 -15 -58 -13 -67 23 -89 38 -24 66 -20 45 5 -8 10 -8
18 -1 27 12 15 5 57 -10 57 -5 0 -7 8 -4 18 5 14 -3 22 -29 35 -43 20 -46 21
-68 4z"/>
<path d="M257 633 c-12 -11 -8 -25 5 -17 8 5 9 2 5 -9 -3 -9 -2 -27 3 -39 7
-19 9 -14 9 25 1 44 -6 56 -22 40z"/>
<path d="M650 551 c0 -5 7 -11 15 -15 8 -3 15 -1 15 3 0 5 -7 11 -15 15 -8 3
-15 1 -15 -3z"/>
<path d="M5 170 c-3 -5 -5 -10 -3 -11 33 -8 38 -7 27 7 -14 17 -16 17 -24 4z"/>
</g>
</svg>
